<svg xmlns="http://www.w3.org/2000/svg" width="168.642" height="70.996" viewBox="0 0 168.642 70.996"><g id="Foreground" transform="translate(0 -0.98)"><path id="Caminho_20172" data-name="Caminho 20172" d="M164.027,47.274h.7a1.126,1.126,0,0,0,.684-.15.488.488,0,0,0,.184-.4.477.477,0,0,0-.089-.284.518.518,0,0,0-.243-.187,1.8,1.8,0,0,0-.581-.062h-.656v1.081Zm-.579,2.014h.578v-1.52h.337a.746.746,0,0,1,.464.123,2.888,2.888,0,0,1,.6.833l.318.564h.705l-.436-.7a4.042,4.042,0,0,0-.53-.711.982.982,0,0,0-.3-.189,1.107,1.107,0,0,0,.743-.327.953.953,0,0,0,.28-.684.922.922,0,0,0-.167-.525.886.886,0,0,0-.45-.345,2.984,2.984,0,0,0-.913-.1h-1.23v3.577Zm1.459-4.614a2.817,2.817,0,0,0-1.364.359,2.581,2.581,0,0,0-1.038,1.025,2.76,2.76,0,0,0-.006,2.768,2.611,2.611,0,0,0,1.029,1.028,2.765,2.765,0,0,0,2.759,0,2.6,2.6,0,0,0,1.025-1.028,2.781,2.781,0,0,0-.007-2.768,2.548,2.548,0,0,0-1.038-1.025A2.814,2.814,0,0,0,164.908,44.674Zm0-.552a3.434,3.434,0,0,1,1.637.428,3.064,3.064,0,0,1,1.242,1.231,3.39,3.39,0,0,1,.446,1.669,3.355,3.355,0,0,1-.439,1.652,3.085,3.085,0,0,1-1.23,1.232,3.336,3.336,0,0,1-3.309,0,3.1,3.1,0,0,1-1.233-1.232,3.345,3.345,0,0,1-.44-1.652,3.379,3.379,0,0,1,.447-1.669,3.072,3.072,0,0,1,1.245-1.231A3.433,3.433,0,0,1,164.908,44.122ZM153.363,56.955h-8.075a5.646,5.646,0,0,1,1.074-3.482,3.613,3.613,0,0,1,2.935-1.252,3.66,3.66,0,0,1,3.147,1.338A5.838,5.838,0,0,1,153.363,56.955ZM156.622,59V58.25a8.972,8.972,0,0,0-1.7-5.864q-1.736-2.161-5.619-2.209a8.025,8.025,0,0,0-3.592.781,6,6,0,0,0-2.592,2.464,8.76,8.76,0,0,0-1,4.339,8.276,8.276,0,0,0,2.139,6.044,8.353,8.353,0,0,0,6.139,2.172q1.244.01,2.469-.1a17.033,17.033,0,0,0,2.578-.446V63.385q-1.094.2-2.1.315a17.966,17.966,0,0,1-2.029.118,10.819,10.819,0,0,1-2.435-.21,4.385,4.385,0,0,1-2.321-1.282,5.629,5.629,0,0,1-1.3-3.327h11.361Zm-16.435,6.576V63.356q-.985.169-1.727.235t-1.36.083a6.287,6.287,0,0,1-4.448-1.446,5.758,5.758,0,0,1-1.637-4.41,4.983,4.983,0,0,1,1.74-4.154,6.788,6.788,0,0,1,4.315-1.211,11.656,11.656,0,0,1,1.388.082q.691.083,1.582.235V50.522q-1.045-.19-1.921-.269c-.584-.053-1.261-.077-2.029-.076a9.413,9.413,0,0,0-4.12.889,6.959,6.959,0,0,0-2.908,2.573,7.673,7.673,0,0,0-1.1,4.12q.06,4.108,2.314,6.15a8.573,8.573,0,0,0,5.988,2.039q.922,0,1.875-.079A19.838,19.838,0,0,0,140.187,65.574Zm-15.789.057V54.789a4.9,4.9,0,0,0-.7-2.682,3.967,3.967,0,0,0-1.711-1.478,5.159,5.159,0,0,0-2.142-.452,9.406,9.406,0,0,0-3.659.649q-.985.367-2.457,1.021V50.466h-2.65V65.633h2.852V53.982q1.022-.446,2.4-.9a9.077,9.077,0,0,1,2.531-.487,2.785,2.785,0,0,1,1.835.517,2.1,2.1,0,0,1,.688,1.266,8.362,8.362,0,0,1,.1,1.593v9.661H124.4Zm-20.618-1.9-1.673.1c-.4.026-.787.039-1.153.04a11.941,11.941,0,0,1-2.223-.161,3.3,3.3,0,0,1-1.71-.784,2.449,2.449,0,0,1-.685-1.854,2.168,2.168,0,0,1,1.3-2.175,8.928,8.928,0,0,1,3.574-.509l.981.032,1.587.054Zm2.852,1.872V55.2a5.315,5.315,0,0,0-.858-3.274,4.031,4.031,0,0,0-2.4-1.429,16.023,16.023,0,0,0-3.667-.314q-1.3,0-2.625.133t-2.71.414v2.247q1.22-.227,2.507-.411a19.031,19.031,0,0,1,2.51-.195,9.429,9.429,0,0,1,3,.32,1.707,1.707,0,0,1,1.161,1.206,9.34,9.34,0,0,1,.194,2.457q-.754-.007-1.356-.044c-.4-.024-.767-.039-1.1-.042a23.463,23.463,0,0,0-3.473.181A6.24,6.24,0,0,0,94.7,57.677a4.075,4.075,0,0,0-1.358,3.313,5.025,5.025,0,0,0,.855,3.106,4.228,4.228,0,0,0,2.334,1.478,13.068,13.068,0,0,0,3.47.375q1.538,0,3.133-.065C104.2,65.836,105.363,65.744,106.632,65.6ZM92.291,50.524H89.464L85.052,63.36,80.7,50.524H77.583l5.624,15.108h3.432Zm-19.9,13.093q-.918.086-1.513.115c-.4.022-.729.03-1,.029a5.219,5.219,0,0,1-4-1.576,5.949,5.949,0,0,1-1.4-4.107A6.242,6.242,0,0,1,65.838,53.7a5.084,5.084,0,0,1,3.9-1.417c.312,0,.683.016,1.11.054s.942.107,1.544.2Zm2.881-19.582H72.394v6.229a20.247,20.247,0,0,0-2.034-.187q-.806-.024-1.255-.015a7.458,7.458,0,0,0-5.71,2.233,8.478,8.478,0,0,0-1.988,5.869,8.1,8.1,0,0,0,1.1,4.288,6.856,6.856,0,0,0,2.962,2.613,10.033,10.033,0,0,0,4.3.883q1.337-.008,2.83-.161t2.676-.357l.013-3.989,0-5.883-.006-6.3Zm-20.357,19.7-1.673.1c-.4.026-.787.039-1.153.04a11.934,11.934,0,0,1-2.223-.161,3.3,3.3,0,0,1-1.71-.784,2.445,2.445,0,0,1-.684-1.854,2.164,2.164,0,0,1,1.3-2.175,8.927,8.927,0,0,1,3.575-.509l.98.032,1.587.054v5.253ZM57.769,65.6V55.2a5.315,5.315,0,0,0-.858-3.274,4.031,4.031,0,0,0-2.4-1.429,16.023,16.023,0,0,0-3.667-.314q-1.3,0-2.625.133t-2.71.414v2.247q1.22-.227,2.507-.411a19.029,19.029,0,0,1,2.508-.195,9.42,9.42,0,0,1,3,.32,1.708,1.708,0,0,1,1.162,1.206,9.341,9.341,0,0,1,.194,2.457c-.5,0-.954-.019-1.356-.044s-.767-.039-1.1-.042a23.456,23.456,0,0,0-3.473.181,6.24,6.24,0,0,0-3.127,1.233,4.075,4.075,0,0,0-1.358,3.313,5.025,5.025,0,0,0,.853,3.106,4.235,4.235,0,0,0,2.335,1.478,13.068,13.068,0,0,0,3.47.375q1.537,0,3.134-.065T57.769,65.6ZM42.243,61.136A3.532,3.532,0,0,0,40.806,58.1a8.621,8.621,0,0,0-3.162-1.269,27.853,27.853,0,0,1-3.163-.8,1.787,1.787,0,0,1-1.438-1.621,1.567,1.567,0,0,1,.667-1.32,3.673,3.673,0,0,1,1.521-.574,9.67,9.67,0,0,1,1.648-.125,18.033,18.033,0,0,1,2.188.148q1.1.141,2.166.342V50.609q-.878-.14-2.068-.281a26.047,26.047,0,0,0-2.8-.151,10.569,10.569,0,0,0-2.962.383,4.926,4.926,0,0,0-2.325,1.368,3.889,3.889,0,0,0-.941,2.688,3.681,3.681,0,0,0,.705,2.3,4.4,4.4,0,0,0,1.71,1.294,12.607,12.607,0,0,0,2.109.7l1.856.384a5.794,5.794,0,0,1,1.876.712,1.731,1.731,0,0,1,.856,1.5,1.883,1.883,0,0,1-1.334,1.748,7.813,7.813,0,0,1-2.937.473,14.333,14.333,0,0,1-2.281-.2q-1.165-.2-2.474-.487V65.4q1.232.242,2.51.392a22.852,22.852,0,0,0,2.621.156,8.789,8.789,0,0,0,5.123-1.293A4.128,4.128,0,0,0,42.243,61.136ZM28.7,50.524H25.617L21.234,63.339,16.706,50.524H13.533l5.624,15.12H20.4l-2.625,6.332h3ZM12.108,61.136A3.532,3.532,0,0,0,10.671,58.1a8.634,8.634,0,0,0-3.163-1.269,27.831,27.831,0,0,1-3.162-.8,1.786,1.786,0,0,1-1.438-1.621,1.567,1.567,0,0,1,.667-1.32A3.673,3.673,0,0,1,5.1,52.52a9.662,9.662,0,0,1,1.648-.125,18.033,18.033,0,0,1,2.188.148c.733.094,1.457.208,2.164.342V50.609q-.876-.14-2.067-.281a26.052,26.052,0,0,0-2.806-.151,10.566,10.566,0,0,0-2.961.383A4.923,4.923,0,0,0,.941,51.928,3.894,3.894,0,0,0,0,54.616a3.674,3.674,0,0,0,.705,2.3,4.387,4.387,0,0,0,1.71,1.294,12.606,12.606,0,0,0,2.109.7l1.856.384a5.794,5.794,0,0,1,1.876.712,1.731,1.731,0,0,1,.856,1.5,1.883,1.883,0,0,1-1.334,1.748,7.816,7.816,0,0,1-2.937.473,14.333,14.333,0,0,1-2.281-.2q-1.165-.2-2.474-.487V65.4q1.23.242,2.51.392a22.852,22.852,0,0,0,2.621.156,8.789,8.789,0,0,0,5.123-1.293A4.128,4.128,0,0,0,12.108,61.136ZM152.766,8.915a7.938,7.938,0,1,1,7.937,7.936A7.936,7.936,0,0,1,152.766,8.915ZM132.346,8.9a7.916,7.916,0,0,1,15.832,0v.99a11.006,11.006,0,0,0,3.239,7.856c1.951,1.95,5.339,2.861,8.308,2.861h.99a7.915,7.915,0,1,1-7.917,7.915c0-.074.062-.768.055-1.045-.05-2.676-4.674-2.733-4.674.055v.99a7.916,7.916,0,1,1-7.916-7.915c.072,0,.769.059,1.045.055,2.428-.045,2.428-3.856,0-3.9-.276-.005-.971.055-1.045.055A7.917,7.917,0,0,1,132.346,8.9Z" transform="translate(0 0)" fill="#00476c" fill-rule="evenodd"></path></g></svg>